<?xml version="1.0" standalone="no"?>
<!DOCTYPE svg PUBLIC "-//W3C//DTD SVG 20010904//EN"
 "http://www.w3.org/TR/2001/REC-SVG-20010904/DTD/svg10.dtd">
<svg version="1.0" xmlns="http://www.w3.org/2000/svg"
 width="150.000000pt" height="50.000000pt" viewBox="0 0 150.000000 50.000000"
 preserveAspectRatio="xMidYMid meet">

<g transform="translate(0.000000,50.000000) scale(0.100000,-0.100000)"
fill="#000000" stroke="none">
<path d="M372 308 c-6 -6 -12 -36 -12 -65 l0 -54 58 3 57 3 3 46 c2 35 -2 49
-18 64 -11 10 -20 13 -20 7 0 -15 -47 -16 -52 -2 -2 7 -8 6 -16 -2z m88 -73
c0 -35 0 -35 -45 -35 -45 0 -45 0 -45 35 0 35 0 35 45 35 45 0 45 0 45 -35z"/>
<path d="M415 240 c-4 -6 -11 -8 -16 -5 -5 4 -9 1 -9 -4 0 -16 26 -13 40 4 8
9 9 15 2 15 -6 0 -14 -5 -17 -10z"/>
<path d="M520 255 l0 -55 35 0 c19 0 35 5 35 10 0 6 -9 10 -20 10 -27 0 -25
28 3 33 l22 4 -22 8 c-28 9 -30 25 -3 25 11 0 20 5 20 10 0 6 -16 10 -35 10
l-35 0 0 -55z"/>
<path d="M609 268 c-8 -15 -8 -27 -1 -44 9 -18 19 -23 52 -22 l40 0 0 43 0 43
-40 0 c-30 1 -43 -4 -51 -20z m58 -14 c8 -21 -13 -42 -28 -27 -13 13 -5 43 11
43 6 0 13 -7 17 -16z"/>
<path d="M716 268 c24 -80 46 -90 70 -33 18 43 18 55 0 55 -7 0 -17 -15 -21
-32 l-7 -33 -11 33 c-5 17 -16 32 -24 32 -10 0 -12 -6 -7 -22z"/>
<path d="M822 248 c3 -42 4 -43 41 -45 l37 -1 0 44 c0 51 -17 60 -22 12 -2
-21 -8 -33 -18 -33 -10 0 -16 12 -18 33 -5 48 -24 39 -20 -10z"/>
<path d="M926 282 c-3 -3 -6 -23 -6 -44 0 -49 27 -54 32 -5 2 20 8 32 18 32
10 0 16 -12 18 -32 5 -49 24 -40 20 10 -3 41 -4 42 -40 43 -20 1 -39 -1 -42
-4z"/>
</g>
</svg>
